<svg
    width="180"
    height="180"
    xmlns="http://www.w3.org/2000/svg"
>
    <g fill="none">
    <rect
        rx="4"
        height="127"
        width="177"
        y="44.5"
        x="1.5"
        fill="none"
        stroke-width="3"
        stroke="#4A4A4A"
    />
    <path
        stroke="#4A4A4A"
        stroke-linecap="round"
        stroke-width="3"
        d="M39.75 100c1.413 4.022 5.372 6.033 11.875 6.033S62.087 104.022 63.5 100M125.75 100c1.354 4.022 5.146 6.033 11.375 6.033 6.23 0 10.021-2.011 11.375-6.033M89.25 110.25c.833 3.333 3.167 5 7 5 3.834 0 6.167-1.667 7-5"
    />
    <path
        stroke-linecap="square"
        stroke-width="3"
        stroke="#4A4A4A"
        d="M1.5 66.25h177"
    />
    <circle r="3.5" cy="55.5" cx="38.5" fill="#4A4A4A" />
    <circle r="3.5" cy="55.5" cx="25.5" fill="#4A4A4A" />
    <circle r="3.5" cy="55.5" cx="12.5" fill="#4A4A4A" />
    <path
        fill="#4A4A4A"
        d="M134.311 18.654c-.764 0-1.311-.419-1.311-1.202 0-.692.656-1.202 1.311-1.202h7.159c.965 0 1.53.546 1.53 1.312 0 .364-.127.728-.364 1.056l-5.865 8.196h4.79c.729 0 1.275.42 1.275 1.166 0 .692-.583 1.238-1.275 1.238h-6.667c-1.056 0-1.53-.674-1.53-1.311 0-.4.165-.856.4-1.166l5.83-8.087h-5.283zM150.362 11.79c-.648 0-1.112-.356-1.112-1.02 0-.588.557-1.02 1.112-1.02h6.072c.82 0 1.298.463 1.298 1.113 0 .309-.108.617-.309.895l-4.975 6.953h4.063c.619 0 1.082.355 1.082.989 0 .587-.495 1.05-1.082 1.05h-5.655c-.895 0-1.297-.572-1.297-1.112 0-.34.14-.726.34-.989l4.944-6.86h-4.48zM164.168 7.183c-.535 0-.918-.293-.918-.841 0-.485.46-.842.918-.842h5.01c.677 0 1.072.382 1.072.918 0 .255-.09.51-.255.74l-4.105 5.737h3.353c.51 0 .892.293.892.816 0 .484-.408.867-.892.867h-4.667c-.74 0-1.07-.472-1.07-.918 0-.28.114-.6.28-.816l4.08-5.661h-3.698z"
    />
    </g>
</svg>